<svg xmlns="http://www.w3.org/2000/svg" width="638" height="141" fill="none" viewBox="0 0 638 141"><rect width="115.76" height="98.115" x="5.772" y="19.858" fill="url(#a)" opacity=".8" rx="18" transform="rotate(-9.878 5.772 19.858)"/><rect width="115.76" height="98.115" x=".473" y="43.723" fill="url(#b)" opacity=".8" rx="18" transform="rotate(-10.01 .473 43.723)"/><rect width="136" height="106" y="16.009" fill="url(#c)" rx="18"/><rect width="72.411" height="10" x="31.794" y="49.009" fill="#fff" fill-opacity=".75" rx="5"/><rect width="62.786" height="10" x="31.794" y="79.009" fill="#fff" fill-opacity=".3" rx="5"/><path fill="#fff3f3" d="M224.967 104.708q-7.584 0-14.208-2.688-6.528-2.783-11.424-7.68-4.896-4.895-7.68-11.424-2.688-6.527-2.688-14.111t2.688-14.113q2.784-6.528 7.68-11.423t11.424-7.584q6.624-2.785 14.208-2.785 5.472 0 10.08 1.345 4.608 1.248 8.448 3.744 3.936 2.496 7.2 6.144l-9.12 8.831a23 23 0 0 0-4.512-4.127q-2.4-1.73-5.376-2.689t-6.624-.96q-6.432 0-11.712 2.976-5.184 2.88-8.256 8.16t-3.072 12.48q0 7.105 3.072 12.48 3.072 5.28 8.256 8.256 5.28 2.88 11.712 2.88 5.76 0 10.176-2.4 4.512-2.4 7.968-6.623l9.216 8.735a37 37 0 0 1-7.584 6.912 33.5 33.5 0 0 1-9.216 4.224q-4.992 1.44-10.656 1.44m37.26-1.536V34.437h12.576v68.735zm24.656 0v-48.96h12.576v48.96zm6.336-54.335q-3.36 0-5.76-2.4t-2.4-5.76 2.4-5.664q2.4-2.4 5.76-2.4t5.664 2.4q2.4 2.303 2.4 5.663t-2.4 5.76q-2.304 2.4-5.664 2.4m18.32 75.071V54.212h11.808v5.952h.768q1.248-1.92 3.264-3.648 2.112-1.727 4.992-2.783t6.432-1.056q6.72 0 12 3.36 5.376 3.262 8.448 9.12 3.168 5.856 3.168 13.535t-3.168 13.537q-3.072 5.855-8.448 9.215-5.28 3.264-12 3.264-5.28 0-9.12-2.208-3.744-2.303-5.568-5.183h-.768l.768 6.911v19.68zm25.056-30.815q3.552 0 6.528-1.728 3.072-1.824 4.896-5.088 1.92-3.264 1.92-7.585 0-4.415-1.92-7.583-1.824-3.168-4.896-4.896-2.976-1.825-6.528-1.825-3.456 0-6.528 1.825-2.976 1.728-4.896 4.992-1.824 3.168-1.824 7.487 0 4.32 1.824 7.585 1.92 3.166 4.896 4.992 3.072 1.823 6.528 1.823m62.489 11.615q-3.552 0-6.432-1.056t-4.992-2.688q-2.016-1.727-3.264-3.647h-.768v5.855H371.82V34.437h12.576v18.816l-.768 6.911h.768q1.248-1.92 3.264-3.648 2.112-1.727 4.992-2.783t6.432-1.056q6.72 0 12 3.36 5.376 3.262 8.448 9.12 3.168 5.856 3.168 13.535t-3.168 13.537q-3.072 5.855-8.448 9.215-5.28 3.264-12 3.264m-2.208-11.615q3.552 0 6.528-1.728 3.072-1.824 4.896-5.088 1.92-3.264 1.92-7.585 0-4.415-1.92-7.583-1.824-3.168-4.896-4.896-2.976-1.825-6.528-1.825-3.456 0-6.528 1.825-2.976 1.728-4.896 4.992-1.824 3.168-1.824 7.487 0 4.32 1.824 7.585 1.92 3.166 4.896 4.992 3.072 1.823 6.528 1.823m58.65 11.615q-7.68 0-13.632-3.36-5.856-3.455-9.216-9.311-3.264-5.952-3.264-13.345 0-7.39 3.264-13.247 3.36-5.952 9.216-9.312 5.952-3.457 13.632-3.457t13.536 3.456q5.856 3.457 9.12 9.313 3.36 5.856 3.36 13.248t-3.36 13.344q-3.264 5.855-9.12 9.311-5.856 3.36-13.536 3.36m0-11.711q3.648 0 6.624-1.632 3.072-1.728 4.896-4.896 1.92-3.264 1.92-7.776t-1.92-7.68q-1.824-3.17-4.896-4.897-2.976-1.727-6.624-1.728-3.552 0-6.72 1.728-3.072 1.728-4.992 4.897-1.824 3.166-1.824 7.68 0 4.512 1.824 7.776 1.92 3.168 4.992 4.896a14.5 14.5 0 0 0 6.72 1.632m50.523 11.711q-5.184 0-9.216-2.016-3.936-2.112-6.24-5.855-2.304-3.745-2.304-8.64 0-5.088 2.592-8.737 2.688-3.647 7.104-5.663 4.512-2.016 9.984-2.016 2.976 0 5.376.383 2.496.288 4.416.769 1.92.48 3.168 1.055v-2.112q0-3.935-2.976-6.431-2.976-2.592-8.16-2.592-3.456 0-6.72 1.631-3.168 1.537-5.28 4.129l-8.064-6.337a23.8 23.8 0 0 1 5.568-5.184 22.7 22.7 0 0 1 7.008-3.264q3.84-1.152 8.064-1.152 11.232 0 17.088 5.185t5.856 15.167v30.144h-12.384V98.18h-.768q-1.344 1.728-3.36 3.264-2.016 1.44-4.704 2.304-2.688.96-6.048.96m2.976-9.791q3.84 0 6.432-1.633 2.688-1.728 4.032-4.416 1.44-2.687 1.44-5.663-2.112-1.056-4.8-1.632a22.5 22.5 0 0 0-5.472-.672q-5.568 0-7.68 2.112-2.112 2.11-2.112 5.183 0 2.88 2.016 4.8 2.112 1.92 6.144 1.92m35.67 8.255v-48.96h11.808v6.528h.768a14.2 14.2 0 0 1 3.264-4.032q2.112-1.822 4.896-2.88 2.784-1.056 5.952-1.056 1.92 0 3.456.288t2.688.768v12.576a32 32 0 0 0-4.032-1.248q-1.92-.576-4.128-.576-3.744 0-6.528 1.92-2.688 1.824-4.128 5.088-1.44 3.17-1.44 7.2v24.384zm59.556 1.536q-6.72 0-12.096-3.264-5.376-3.36-8.544-9.216-3.072-5.855-3.072-13.535t3.072-13.537q3.168-5.856 8.544-9.12 5.376-3.36 12.096-3.36 3.552 0 6.432 1.056t4.992 2.785 3.264 3.647h.768l-.768-6.912V34.438h12.48v68.735h-11.712v-5.855h-.768q-1.152 1.92-3.264 3.647-2.112 1.632-4.992 2.688t-6.432 1.056m2.112-11.615q3.552 0 6.528-1.825 3.072-1.824 4.896-4.992 1.92-3.262 1.92-7.584 0-4.32-1.92-7.487-1.824-3.265-4.896-4.992-2.976-1.825-6.528-1.825-3.456 0-6.528 1.825-2.976 1.728-4.896 4.896-1.824 3.168-1.824 7.584 0 4.32 1.824 7.584 1.92 3.262 4.896 5.088 3.072 1.727 6.528 1.728"/><defs><linearGradient id="a" x1="63.652" x2="63.652" y1="19.858" y2="117.973" gradientUnits="userSpaceOnUse"><stop stop-color="#9aa4ff"/><stop offset="1" stop-color="#3589ff"/></linearGradient><linearGradient id="b" x1="58.353" x2="58.353" y1="43.723" y2="141.839" gradientUnits="userSpaceOnUse"><stop stop-color="#9aa4ff"/><stop offset="1" stop-color="#3589ff"/></linearGradient><linearGradient id="c" x1="68" x2="68" y1="16.009" y2="122.009" gradientUnits="userSpaceOnUse"><stop stop-color="#9aa4ff"/><stop offset="1" stop-color="#3589ff"/></linearGradient></defs></svg>